<?xml version="1.0"?>
<svg xmlns="http://www.w3.org/2000/svg" xmlns:xlink="http://www.w3.org/1999/xlink" viewBox="0 0 682.200000 136.000000" width="341.100000mm" height="68.000000mm" version="1.1">
<rect x="1.000000" y="1.000000" width="681.200000" height="135.000000" rx="0" ry="0" style="stroke:none;fill:#cccccc;"/>
<rect x="0.000000" y="0.000000" width="681.200000" height="135.000000" rx="0" ry="0" style="stroke:none;fill:#ffffff;"/>
<text x="10.000000" y="7.000000" font-family="Arial" font-size="7"></text>
<a xlink:href="invert-0x2ad2000973e0.svg">
<rect x="75.000000" y="69.000000" width="25.800000" height="24.000000" rx="0" ry="0" style="stroke:none;fill:#cccccc;"/>
<rect x="74.000000" y="68.000000" width="25.800000" height="24.000000" rx="0" ry="0" style="stroke:none;fill:#003366;"/>
</a>
<a xlink:href="invert-0x2ad2000973e0.svg">
<text x="86.900000" y="82.000000" font-family="Arial" font-size="7" text-anchor="middle" fill="#FFFFFF">invert</text>
</a>
<circle cx="76.000000" cy="70.000000" r="1"/>
<line x1="71.000000" y1="75.000000" x2="74.000000" y2="76.000000"  transform="rotate(0.000000,74.000000,76.000000)" style="stroke: black; stroke-width:0.25;"/>
<line x1="71.000000" y1="77.000000" x2="74.000000" y2="76.000000"  transform="rotate(0.000000,74.000000,76.000000)" style="stroke: black; stroke-width:0.25;"/>
<line x1="71.000000" y1="83.000000" x2="74.000000" y2="84.000000"  transform="rotate(0.000000,74.000000,84.000000)" style="stroke: black; stroke-width:0.25;"/>
<line x1="71.000000" y1="85.000000" x2="74.000000" y2="84.000000"  transform="rotate(0.000000,74.000000,84.000000)" style="stroke: black; stroke-width:0.25;"/>
<rect x="116.800000" y="77.000000" width="24.000000" height="24.000000" rx="0" ry="0" style="stroke:none;fill:#cccccc;"/>
<rect x="115.800000" y="76.000000" width="24.000000" height="24.000000" rx="0" ry="0" style="stroke:none;fill:#4B71A1;"/>
<text x="127.800000" y="90.000000" font-family="Arial" font-size="7" text-anchor="middle" fill="#FFFFFF">+</text>
<circle cx="117.800000" cy="78.000000" r="1"/>
<line x1="112.800000" y1="83.000000" x2="115.800000" y2="84.000000"  transform="rotate(0.000000,115.800000,84.000000)" style="stroke: black; stroke-width:0.25;"/>
<line x1="112.800000" y1="85.000000" x2="115.800000" y2="84.000000"  transform="rotate(0.000000,115.800000,84.000000)" style="stroke: black; stroke-width:0.25;"/>
<line x1="112.800000" y1="91.000000" x2="115.800000" y2="92.000000"  transform="rotate(0.000000,115.800000,92.000000)" style="stroke: black; stroke-width:0.25;"/>
<line x1="112.800000" y1="93.000000" x2="115.800000" y2="92.000000"  transform="rotate(0.000000,115.800000,92.000000)" style="stroke: black; stroke-width:0.25;"/>
<a xlink:href="bridge-0x2ad20009d090.svg">
<rect x="148.800000" y="77.000000" width="25.800000" height="24.000000" rx="0" ry="0" style="stroke:none;fill:#cccccc;"/>
<rect x="147.800000" y="76.000000" width="25.800000" height="24.000000" rx="0" ry="0" style="stroke:none;fill:#003366;"/>
</a>
<a xlink:href="bridge-0x2ad20009d090.svg">
<text x="160.700000" y="90.000000" font-family="Arial" font-size="7" text-anchor="middle" fill="#FFFFFF">bridge</text>
</a>
<circle cx="149.800000" cy="78.000000" r="1"/>
<line x1="144.800000" y1="87.000000" x2="147.800000" y2="88.000000"  transform="rotate(0.000000,147.800000,88.000000)" style="stroke: black; stroke-width:0.25;"/>
<line x1="144.800000" y1="89.000000" x2="147.800000" y2="88.000000"  transform="rotate(0.000000,147.800000,88.000000)" style="stroke: black; stroke-width:0.25;"/>
<rect x="190.600000" y="69.000000" width="24.000000" height="24.000000" rx="0" ry="0" style="stroke:none;fill:#cccccc;"/>
<rect x="189.600000" y="68.000000" width="24.000000" height="24.000000" rx="0" ry="0" style="stroke:none;fill:#4B71A1;"/>
<text x="201.600000" y="82.000000" font-family="Arial" font-size="7" text-anchor="middle" fill="#FFFFFF">+</text>
<circle cx="191.600000" cy="70.000000" r="1"/>
<line x1="186.600000" y1="75.000000" x2="189.600000" y2="76.000000"  transform="rotate(0.000000,189.600000,76.000000)" style="stroke: black; stroke-width:0.25;"/>
<line x1="186.600000" y1="77.000000" x2="189.600000" y2="76.000000"  transform="rotate(0.000000,189.600000,76.000000)" style="stroke: black; stroke-width:0.25;"/>
<line x1="186.600000" y1="83.000000" x2="189.600000" y2="84.000000"  transform="rotate(0.000000,189.600000,84.000000)" style="stroke: black; stroke-width:0.25;"/>
<line x1="186.600000" y1="85.000000" x2="189.600000" y2="84.000000"  transform="rotate(0.000000,189.600000,84.000000)" style="stroke: black; stroke-width:0.25;"/>
<a xlink:href="delay-0x2ad2000efa10.svg">
<rect x="222.600000" y="69.000000" width="129.000000" height="24.000000" rx="0" ry="0" style="stroke:none;fill:#cccccc;"/>
<rect x="221.600000" y="68.000000" width="129.000000" height="24.000000" rx="0" ry="0" style="stroke:none;fill:#003366;"/>
</a>
<a xlink:href="delay-0x2ad2000efa10.svg">
<text x="286.100000" y="82.000000" font-family="Arial" font-size="7" text-anchor="middle" fill="#FFFFFF">delay(4096)((..., 0.01f) : *)</text>
</a>
<circle cx="223.600000" cy="70.000000" r="1"/>
<line x1="218.600000" y1="79.000000" x2="221.600000" y2="80.000000"  transform="rotate(0.000000,221.600000,80.000000)" style="stroke: black; stroke-width:0.25;"/>
<line x1="218.600000" y1="81.000000" x2="221.600000" y2="80.000000"  transform="rotate(0.000000,221.600000,80.000000)" style="stroke: black; stroke-width:0.25;"/>
<a xlink:href="buzz-0x2ad200085680.svg">
<rect x="359.600000" y="69.000000" width="25.800000" height="24.000000" rx="0" ry="0" style="stroke:none;fill:#cccccc;"/>
<rect x="358.600000" y="68.000000" width="25.800000" height="24.000000" rx="0" ry="0" style="stroke:none;fill:#003366;"/>
</a>
<a xlink:href="buzz-0x2ad200085680.svg">
<text x="371.500000" y="82.000000" font-family="Arial" font-size="7" text-anchor="middle" fill="#FFFFFF">buzz</text>
</a>
<circle cx="360.600000" cy="70.000000" r="1"/>
<line x1="355.600000" y1="79.000000" x2="358.600000" y2="80.000000"  transform="rotate(0.000000,358.600000,80.000000)" style="stroke: black; stroke-width:0.25;"/>
<line x1="355.600000" y1="81.000000" x2="358.600000" y2="80.000000"  transform="rotate(0.000000,358.600000,80.000000)" style="stroke: black; stroke-width:0.25;"/>
<rect x="417.400000" y="77.000000" width="24.000000" height="24.000000" rx="0" ry="0" style="stroke:none;fill:#cccccc;"/>
<rect x="416.400000" y="76.000000" width="24.000000" height="24.000000" rx="0" ry="0" style="stroke:none;fill:#4B71A1;"/>
<text x="428.400000" y="90.000000" font-family="Arial" font-size="7" text-anchor="middle" fill="#FFFFFF">+</text>
<circle cx="418.400000" cy="78.000000" r="1"/>
<line x1="413.400000" y1="83.000000" x2="416.400000" y2="84.000000"  transform="rotate(0.000000,416.400000,84.000000)" style="stroke: black; stroke-width:0.25;"/>
<line x1="413.400000" y1="85.000000" x2="416.400000" y2="84.000000"  transform="rotate(0.000000,416.400000,84.000000)" style="stroke: black; stroke-width:0.25;"/>
<line x1="413.400000" y1="91.000000" x2="416.400000" y2="92.000000"  transform="rotate(0.000000,416.400000,92.000000)" style="stroke: black; stroke-width:0.25;"/>
<line x1="413.400000" y1="93.000000" x2="416.400000" y2="92.000000"  transform="rotate(0.000000,416.400000,92.000000)" style="stroke: black; stroke-width:0.25;"/>
<a xlink:href="nut-0x2ad2001261b0.svg">
<rect x="449.400000" y="77.000000" width="24.000000" height="24.000000" rx="0" ry="0" style="stroke:none;fill:#cccccc;"/>
<rect x="448.400000" y="76.000000" width="24.000000" height="24.000000" rx="0" ry="0" style="stroke:none;fill:#003366;"/>
</a>
<a xlink:href="nut-0x2ad2001261b0.svg">
<text x="460.400000" y="90.000000" font-family="Arial" font-size="7" text-anchor="middle" fill="#FFFFFF">nut</text>
</a>
<circle cx="450.400000" cy="78.000000" r="1"/>
<line x1="445.400000" y1="87.000000" x2="448.400000" y2="88.000000"  transform="rotate(0.000000,448.400000,88.000000)" style="stroke: black; stroke-width:0.25;"/>
<line x1="445.400000" y1="89.000000" x2="448.400000" y2="88.000000"  transform="rotate(0.000000,448.400000,88.000000)" style="stroke: black; stroke-width:0.25;"/>
<a xlink:href="buzz-0x2ad200085680.svg">
<rect x="489.400000" y="73.000000" width="25.800000" height="24.000000" rx="0" ry="0" style="stroke:none;fill:#cccccc;"/>
<rect x="488.400000" y="72.000000" width="25.800000" height="24.000000" rx="0" ry="0" style="stroke:none;fill:#003366;"/>
</a>
<a xlink:href="buzz-0x2ad200085680.svg">
<text x="501.300000" y="86.000000" font-family="Arial" font-size="7" text-anchor="middle" fill="#FFFFFF">buzz</text>
</a>
<circle cx="490.400000" cy="74.000000" r="1"/>
<line x1="485.400000" y1="83.000000" x2="488.400000" y2="84.000000"  transform="rotate(0.000000,488.400000,84.000000)" style="stroke: black; stroke-width:0.25;"/>
<line x1="485.400000" y1="85.000000" x2="488.400000" y2="84.000000"  transform="rotate(0.000000,488.400000,84.000000)" style="stroke: black; stroke-width:0.25;"/>
<line x1="516.200000" y1="80.000000" x2="516.200000" y2="76.000000"  style="stroke:black; stroke-linecap:round; stroke-width:0.25;"/>
<line x1="516.200000" y1="76.000000" x2="520.200000" y2="76.000000"  style="stroke:black; stroke-linecap:round; stroke-width:0.25;"/>
<line x1="520.200000" y1="76.000000" x2="520.200000" y2="80.000000"  style="stroke:black; stroke-linecap:round; stroke-width:0.25;"/>
<rect x="579.200000" y="65.000000" width="24.000000" height="24.000000" rx="0" ry="0" style="stroke:none;fill:#cccccc;"/>
<rect x="578.200000" y="64.000000" width="24.000000" height="24.000000" rx="0" ry="0" style="stroke:none;fill:#4B71A1;"/>
<text x="590.200000" y="78.000000" font-family="Arial" font-size="7" text-anchor="middle" fill="#FFFFFF">+</text>
<circle cx="580.200000" cy="66.000000" r="1"/>
<line x1="575.200000" y1="71.000000" x2="578.200000" y2="72.000000"  transform="rotate(0.000000,578.200000,72.000000)" style="stroke: black; stroke-width:0.25;"/>
<line x1="575.200000" y1="73.000000" x2="578.200000" y2="72.000000"  transform="rotate(0.000000,578.200000,72.000000)" style="stroke: black; stroke-width:0.25;"/>
<line x1="575.200000" y1="79.000000" x2="578.200000" y2="80.000000"  transform="rotate(0.000000,578.200000,80.000000)" style="stroke: black; stroke-width:0.25;"/>
<line x1="575.200000" y1="81.000000" x2="578.200000" y2="80.000000"  transform="rotate(0.000000,578.200000,80.000000)" style="stroke: black; stroke-width:0.25;"/>
<a xlink:href="delay-0x2ad2000efa10.svg">
<rect x="297.950000" y="25.000000" width="129.000000" height="24.000000" rx="0" ry="0" style="stroke:none;fill:#cccccc;"/>
<rect x="296.950000" y="24.000000" width="129.000000" height="24.000000" rx="0" ry="0" style="stroke:none;fill:#003366;"/>
</a>
<a xlink:href="delay-0x2ad2000efa10.svg">
<text x="361.450000" y="38.000000" font-family="Arial" font-size="7" text-anchor="middle" fill="#FFFFFF">delay(4096)((..., 0.01f) : *)</text>
</a>
<circle cx="423.950000" cy="46.000000" r="1"/>
<line x1="428.950000" y1="35.000000" x2="425.950000" y2="36.000000"  transform="rotate(0.000000,425.950000,36.000000)" style="stroke: black; stroke-width:0.25;"/>
<line x1="428.950000" y1="37.000000" x2="425.950000" y2="36.000000"  transform="rotate(0.000000,425.950000,36.000000)" style="stroke: black; stroke-width:0.25;"/>
<a xlink:href="DC-0x2ad20012c500.svg">
<rect x="251.250000" y="25.000000" width="38.700000" height="24.000000" rx="0" ry="0" style="stroke:none;fill:#cccccc;"/>
<rect x="250.250000" y="24.000000" width="38.700000" height="24.000000" rx="0" ry="0" style="stroke:none;fill:#003366;"/>
</a>
<a xlink:href="DC-0x2ad20012c500.svg">
<text x="269.600000" y="38.000000" font-family="Arial" font-size="7" text-anchor="middle" fill="#FFFFFF">DC_filter</text>
</a>
<circle cx="286.950000" cy="46.000000" r="1"/>
<line x1="291.950000" y1="35.000000" x2="288.950000" y2="36.000000"  transform="rotate(0.000000,288.950000,36.000000)" style="stroke: black; stroke-width:0.25;"/>
<line x1="291.950000" y1="37.000000" x2="288.950000" y2="36.000000"  transform="rotate(0.000000,288.950000,36.000000)" style="stroke: black; stroke-width:0.25;"/>
<line x1="604.200000" y1="76.000000" x2="604.200000" y2="72.000000"  style="stroke:black; stroke-linecap:round; stroke-width:0.25;"/>
<line x1="604.200000" y1="72.000000" x2="608.200000" y2="72.000000"  style="stroke:black; stroke-linecap:round; stroke-width:0.25;"/>
<line x1="608.200000" y1="72.000000" x2="608.200000" y2="76.000000"  style="stroke:black; stroke-linecap:round; stroke-width:0.25;"/>
<line x1="15.000000" y1="15.000000" x2="15.000000" y2="121.000000"  style="stroke: black; stroke-linecap:round; stroke-width:0.25; stroke-dasharray:3,3;"/>
<line x1="15.000000" y1="121.000000" x2="667.200000" y2="121.000000"  style="stroke: black; stroke-linecap:round; stroke-width:0.25; stroke-dasharray:3,3;"/>
<line x1="667.200000" y1="121.000000" x2="667.200000" y2="15.000000"  style="stroke: black; stroke-linecap:round; stroke-width:0.25; stroke-dasharray:3,3;"/>
<line x1="15.000000" y1="15.000000" x2="20.000000" y2="15.000000"  style="stroke: black; stroke-linecap:round; stroke-width:0.25; stroke-dasharray:3,3;"/>
<line x1="49.025000" y1="15.000000" x2="667.200000" y2="15.000000"  style="stroke: black; stroke-linecap:round; stroke-width:0.25; stroke-dasharray:3,3;"/>
<text x="20.000000" y="17.000000" font-family="Arial" font-size="7">process</text>
<line x1="669.200000" y1="63.000000" x2="672.200000" y2="64.000000"  transform="rotate(0.000000,672.200000,64.000000)" style="stroke: black; stroke-width:0.25;"/>
<line x1="669.200000" y1="65.000000" x2="672.200000" y2="64.000000"  transform="rotate(0.000000,672.200000,64.000000)" style="stroke: black; stroke-width:0.25;"/>
<line x1="669.200000" y1="71.000000" x2="672.200000" y2="72.000000"  transform="rotate(0.000000,672.200000,72.000000)" style="stroke: black; stroke-width:0.25;"/>
<line x1="669.200000" y1="73.000000" x2="672.200000" y2="72.000000"  transform="rotate(0.000000,672.200000,72.000000)" style="stroke: black; stroke-width:0.25;"/>
<line x1="10.000000" y1="68.000000" x2="20.000000" y2="68.000000"  style="stroke:black; stroke-linecap:round; stroke-width:0.25;"/>
<line x1="20.000000" y1="68.000000" x2="24.000000" y2="68.000000"  style="stroke:black; stroke-linecap:round; stroke-width:0.25;"/>
<line x1="24.000000" y1="68.000000" x2="28.000000" y2="68.000000"  style="stroke:black; stroke-linecap:round; stroke-width:0.25;"/>
<line x1="28.000000" y1="68.000000" x2="28.000000" y2="68.000000"  style="stroke:black; stroke-linecap:round; stroke-width:0.25;"/>
<line x1="28.000000" y1="68.000000" x2="32.000000" y2="68.000000"  style="stroke:black; stroke-linecap:round; stroke-width:0.25;"/>
<line x1="32.000000" y1="68.000000" x2="36.000000" y2="68.000000"  style="stroke:black; stroke-linecap:round; stroke-width:0.25;"/>
<line x1="36.000000" y1="68.000000" x2="62.000000" y2="84.000000"  style="stroke:black; stroke-linecap:round; stroke-width:0.25;"/>
<line x1="36.000000" y1="68.000000" x2="62.000000" y2="100.000000"  style="stroke:black; stroke-linecap:round; stroke-width:0.25;"/>
<line x1="62.000000" y1="84.000000" x2="70.000000" y2="84.000000"  style="stroke:black; stroke-linecap:round; stroke-width:0.25;"/>
<line x1="62.000000" y1="100.000000" x2="70.000000" y2="100.000000"  style="stroke:black; stroke-linecap:round; stroke-width:0.25;"/>
<line x1="70.000000" y1="36.000000" x2="70.000000" y2="36.000000"  style="stroke:black; stroke-linecap:round; stroke-width:0.25;"/>
<line x1="70.000000" y1="36.000000" x2="70.000000" y2="76.000000"  style="stroke:black; stroke-linecap:round; stroke-width:0.25;"/>
<line x1="70.000000" y1="76.000000" x2="70.000000" y2="76.000000"  style="stroke:black; stroke-linecap:round; stroke-width:0.25;"/>
<line x1="70.000000" y1="76.000000" x2="74.000000" y2="76.000000"  style="stroke:black; stroke-linecap:round; stroke-width:0.25;"/>
<line x1="70.000000" y1="84.000000" x2="74.000000" y2="84.000000"  style="stroke:black; stroke-linecap:round; stroke-width:0.25;"/>
<line x1="70.000000" y1="100.000000" x2="86.900000" y2="100.000000"  style="stroke:black; stroke-linecap:round; stroke-width:0.25;"/>
<line x1="86.900000" y1="100.000000" x2="103.800000" y2="100.000000"  style="stroke:black; stroke-linecap:round; stroke-width:0.25;"/>
<line x1="99.800000" y1="76.000000" x2="103.800000" y2="76.000000"  style="stroke:black; stroke-linecap:round; stroke-width:0.25;"/>
<line x1="99.800000" y1="84.000000" x2="103.800000" y2="84.000000"  style="stroke:black; stroke-linecap:round; stroke-width:0.25;"/>
<line x1="103.800000" y1="68.000000" x2="111.800000" y2="68.000000"  style="stroke:black; stroke-linecap:round; stroke-width:0.25;"/>
<line x1="103.800000" y1="76.000000" x2="103.800000" y2="68.000000"  style="stroke:black; stroke-linecap:round; stroke-width:0.25;"/>
<line x1="103.800000" y1="76.000000" x2="103.800000" y2="76.000000"  style="stroke:black; stroke-linecap:round; stroke-width:0.25;"/>
<line x1="103.800000" y1="84.000000" x2="111.800000" y2="84.000000"  style="stroke:black; stroke-linecap:round; stroke-width:0.25;"/>
<line x1="103.800000" y1="92.000000" x2="111.800000" y2="92.000000"  style="stroke:black; stroke-linecap:round; stroke-width:0.25;"/>
<line x1="103.800000" y1="100.000000" x2="103.800000" y2="92.000000"  style="stroke:black; stroke-linecap:round; stroke-width:0.25;"/>
<line x1="103.800000" y1="100.000000" x2="103.800000" y2="100.000000"  style="stroke:black; stroke-linecap:round; stroke-width:0.25;"/>
<line x1="111.800000" y1="68.000000" x2="127.800000" y2="68.000000"  style="stroke:black; stroke-linecap:round; stroke-width:0.25;"/>
<line x1="111.800000" y1="84.000000" x2="115.800000" y2="84.000000"  style="stroke:black; stroke-linecap:round; stroke-width:0.25;"/>
<line x1="111.800000" y1="92.000000" x2="115.800000" y2="92.000000"  style="stroke:black; stroke-linecap:round; stroke-width:0.25;"/>
<line x1="127.800000" y1="68.000000" x2="143.800000" y2="68.000000"  style="stroke:black; stroke-linecap:round; stroke-width:0.25;"/>
<line x1="139.800000" y1="88.000000" x2="143.800000" y2="88.000000"  style="stroke:black; stroke-linecap:round; stroke-width:0.25;"/>
<line x1="143.800000" y1="68.000000" x2="143.800000" y2="68.000000"  style="stroke:black; stroke-linecap:round; stroke-width:0.25;"/>
<line x1="143.800000" y1="68.000000" x2="160.700000" y2="68.000000"  style="stroke:black; stroke-linecap:round; stroke-width:0.25;"/>
<line x1="143.800000" y1="88.000000" x2="143.800000" y2="88.000000"  style="stroke:black; stroke-linecap:round; stroke-width:0.25;"/>
<line x1="143.800000" y1="88.000000" x2="147.800000" y2="88.000000"  style="stroke:black; stroke-linecap:round; stroke-width:0.25;"/>
<line x1="160.700000" y1="68.000000" x2="177.600000" y2="68.000000"  style="stroke:black; stroke-linecap:round; stroke-width:0.25;"/>
<line x1="173.600000" y1="84.000000" x2="177.600000" y2="84.000000"  style="stroke:black; stroke-linecap:round; stroke-width:0.25;"/>
<line x1="173.600000" y1="92.000000" x2="177.600000" y2="92.000000"  style="stroke:black; stroke-linecap:round; stroke-width:0.25;"/>
<line x1="177.600000" y1="68.000000" x2="185.600000" y2="68.000000"  style="stroke:black; stroke-linecap:round; stroke-width:0.25;"/>
<line x1="177.600000" y1="84.000000" x2="185.600000" y2="84.000000"  style="stroke:black; stroke-linecap:round; stroke-width:0.25;"/>
<line x1="177.600000" y1="92.000000" x2="185.600000" y2="92.000000"  style="stroke:black; stroke-linecap:round; stroke-width:0.25;"/>
<line x1="185.600000" y1="68.000000" x2="185.600000" y2="76.000000"  style="stroke:black; stroke-linecap:round; stroke-width:0.25;"/>
<line x1="185.600000" y1="76.000000" x2="185.600000" y2="76.000000"  style="stroke:black; stroke-linecap:round; stroke-width:0.25;"/>
<line x1="185.600000" y1="76.000000" x2="189.600000" y2="76.000000"  style="stroke:black; stroke-linecap:round; stroke-width:0.25;"/>
<line x1="185.600000" y1="84.000000" x2="189.600000" y2="84.000000"  style="stroke:black; stroke-linecap:round; stroke-width:0.25;"/>
<line x1="185.600000" y1="92.000000" x2="185.600000" y2="100.000000"  style="stroke:black; stroke-linecap:round; stroke-width:0.25;"/>
<line x1="185.600000" y1="100.000000" x2="185.600000" y2="100.000000"  style="stroke:black; stroke-linecap:round; stroke-width:0.25;"/>
<line x1="185.600000" y1="100.000000" x2="201.600000" y2="100.000000"  style="stroke:black; stroke-linecap:round; stroke-width:0.25;"/>
<line x1="201.600000" y1="100.000000" x2="217.600000" y2="100.000000"  style="stroke:black; stroke-linecap:round; stroke-width:0.25;"/>
<line x1="213.600000" y1="80.000000" x2="217.600000" y2="80.000000"  style="stroke:black; stroke-linecap:round; stroke-width:0.25;"/>
<line x1="217.600000" y1="100.000000" x2="303.000000" y2="100.000000"  style="stroke:black; stroke-linecap:round; stroke-width:0.25;"/>
<line x1="217.600000" y1="80.000000" x2="217.600000" y2="80.000000"  style="stroke:black; stroke-linecap:round; stroke-width:0.25;"/>
<line x1="217.600000" y1="80.000000" x2="221.600000" y2="80.000000"  style="stroke:black; stroke-linecap:round; stroke-width:0.25;"/>
<line x1="217.600000" y1="100.000000" x2="217.600000" y2="100.000000"  style="stroke:black; stroke-linecap:round; stroke-width:0.25;"/>
<line x1="246.250000" y1="36.000000" x2="70.000000" y2="36.000000"  style="stroke:black; stroke-linecap:round; stroke-width:0.25;"/>
<line x1="250.250000" y1="36.000000" x2="246.250000" y2="36.000000"  style="stroke:black; stroke-linecap:round; stroke-width:0.25;"/>
<line x1="292.950000" y1="36.000000" x2="288.950000" y2="36.000000"  style="stroke:black; stroke-linecap:round; stroke-width:0.25;"/>
<line x1="292.950000" y1="36.000000" x2="292.950000" y2="36.000000"  style="stroke:black; stroke-linecap:round; stroke-width:0.25;"/>
<line x1="296.950000" y1="36.000000" x2="292.950000" y2="36.000000"  style="stroke:black; stroke-linecap:round; stroke-width:0.25;"/>
<line x1="303.000000" y1="100.000000" x2="388.400000" y2="100.000000"  style="stroke:black; stroke-linecap:round; stroke-width:0.25;"/>
<line x1="350.600000" y1="80.000000" x2="354.600000" y2="80.000000"  style="stroke:black; stroke-linecap:round; stroke-width:0.25;"/>
<line x1="354.600000" y1="80.000000" x2="354.600000" y2="80.000000"  style="stroke:black; stroke-linecap:round; stroke-width:0.25;"/>
<line x1="354.600000" y1="80.000000" x2="358.600000" y2="80.000000"  style="stroke:black; stroke-linecap:round; stroke-width:0.25;"/>
<line x1="384.400000" y1="76.000000" x2="388.400000" y2="76.000000"  style="stroke:black; stroke-linecap:round; stroke-width:0.25;"/>
<line x1="384.400000" y1="84.000000" x2="388.400000" y2="84.000000"  style="stroke:black; stroke-linecap:round; stroke-width:0.25;"/>
<line x1="388.400000" y1="100.000000" x2="396.400000" y2="100.000000"  style="stroke:black; stroke-linecap:round; stroke-width:0.25;"/>
<line x1="388.400000" y1="56.000000" x2="404.400000" y2="56.000000"  style="stroke:black; stroke-linecap:round; stroke-width:0.25;"/>
<line x1="388.400000" y1="76.000000" x2="388.400000" y2="56.000000"  style="stroke:black; stroke-linecap:round; stroke-width:0.25;"/>
<line x1="388.400000" y1="76.000000" x2="388.400000" y2="76.000000"  style="stroke:black; stroke-linecap:round; stroke-width:0.25;"/>
<line x1="388.400000" y1="84.000000" x2="404.400000" y2="84.000000"  style="stroke:black; stroke-linecap:round; stroke-width:0.25;"/>
<line x1="396.400000" y1="100.000000" x2="396.400000" y2="112.000000"  style="stroke:black; stroke-linecap:round; stroke-width:0.25;"/>
<line x1="396.400000" y1="112.000000" x2="404.400000" y2="112.000000"  style="stroke:black; stroke-linecap:round; stroke-width:0.25;"/>
<line x1="404.400000" y1="56.000000" x2="465.300000" y2="56.000000"  style="stroke:black; stroke-linecap:round; stroke-width:0.25;"/>
<line x1="404.400000" y1="84.000000" x2="404.400000" y2="92.000000"  style="stroke:black; stroke-linecap:round; stroke-width:0.25;"/>
<line x1="404.400000" y1="92.000000" x2="404.400000" y2="92.000000"  style="stroke:black; stroke-linecap:round; stroke-width:0.25;"/>
<line x1="404.400000" y1="92.000000" x2="412.400000" y2="92.000000"  style="stroke:black; stroke-linecap:round; stroke-width:0.25;"/>
<line x1="404.400000" y1="112.000000" x2="465.300000" y2="112.000000"  style="stroke:black; stroke-linecap:round; stroke-width:0.25;"/>
<line x1="412.400000" y1="64.000000" x2="412.400000" y2="64.000000"  style="stroke:black; stroke-linecap:round; stroke-width:0.25;"/>
<line x1="412.400000" y1="64.000000" x2="412.400000" y2="84.000000"  style="stroke:black; stroke-linecap:round; stroke-width:0.25;"/>
<line x1="412.400000" y1="84.000000" x2="412.400000" y2="84.000000"  style="stroke:black; stroke-linecap:round; stroke-width:0.25;"/>
<line x1="412.400000" y1="84.000000" x2="416.400000" y2="84.000000"  style="stroke:black; stroke-linecap:round; stroke-width:0.25;"/>
<line x1="412.400000" y1="92.000000" x2="416.400000" y2="92.000000"  style="stroke:black; stroke-linecap:round; stroke-width:0.25;"/>
<line x1="429.950000" y1="36.000000" x2="425.950000" y2="36.000000"  style="stroke:black; stroke-linecap:round; stroke-width:0.25;"/>
<line x1="440.400000" y1="88.000000" x2="444.400000" y2="88.000000"  style="stroke:black; stroke-linecap:round; stroke-width:0.25;"/>
<line x1="444.400000" y1="88.000000" x2="444.400000" y2="88.000000"  style="stroke:black; stroke-linecap:round; stroke-width:0.25;"/>
<line x1="444.400000" y1="88.000000" x2="448.400000" y2="88.000000"  style="stroke:black; stroke-linecap:round; stroke-width:0.25;"/>
<line x1="465.300000" y1="56.000000" x2="526.200000" y2="56.000000"  style="stroke:black; stroke-linecap:round; stroke-width:0.25;"/>
<line x1="465.300000" y1="64.000000" x2="412.400000" y2="64.000000"  style="stroke:black; stroke-linecap:round; stroke-width:0.25;"/>
<line x1="465.300000" y1="112.000000" x2="526.200000" y2="112.000000"  style="stroke:black; stroke-linecap:round; stroke-width:0.25;"/>
<line x1="472.400000" y1="84.000000" x2="476.400000" y2="84.000000"  style="stroke:black; stroke-linecap:round; stroke-width:0.25;"/>
<line x1="472.400000" y1="92.000000" x2="476.400000" y2="92.000000"  style="stroke:black; stroke-linecap:round; stroke-width:0.25;"/>
<line x1="476.400000" y1="84.000000" x2="484.400000" y2="84.000000"  style="stroke:black; stroke-linecap:round; stroke-width:0.25;"/>
<line x1="476.400000" y1="92.000000" x2="484.400000" y2="92.000000"  style="stroke:black; stroke-linecap:round; stroke-width:0.25;"/>
<line x1="484.400000" y1="84.000000" x2="488.400000" y2="84.000000"  style="stroke:black; stroke-linecap:round; stroke-width:0.25;"/>
<line x1="484.400000" y1="92.000000" x2="484.400000" y2="104.000000"  style="stroke:black; stroke-linecap:round; stroke-width:0.25;"/>
<line x1="484.400000" y1="104.000000" x2="484.400000" y2="104.000000"  style="stroke:black; stroke-linecap:round; stroke-width:0.25;"/>
<line x1="484.400000" y1="104.000000" x2="501.300000" y2="104.000000"  style="stroke:black; stroke-linecap:round; stroke-width:0.25;"/>
<line x1="501.300000" y1="104.000000" x2="518.200000" y2="104.000000"  style="stroke:black; stroke-linecap:round; stroke-width:0.25;"/>
<line x1="514.200000" y1="80.000000" x2="518.200000" y2="80.000000"  style="stroke:black; stroke-linecap:round; stroke-width:0.25;"/>
<line x1="514.200000" y1="88.000000" x2="518.200000" y2="88.000000"  style="stroke:black; stroke-linecap:round; stroke-width:0.25;"/>
<line x1="518.200000" y1="64.000000" x2="465.300000" y2="64.000000"  style="stroke:black; stroke-linecap:round; stroke-width:0.25;"/>
<line x1="518.200000" y1="64.000000" x2="518.200000" y2="64.000000"  style="stroke:black; stroke-linecap:round; stroke-width:0.25;"/>
<line x1="518.200000" y1="76.000000" x2="518.200000" y2="64.000000"  style="stroke:black; stroke-linecap:round; stroke-width:0.25;"/>
<line x1="518.200000" y1="80.000000" x2="520.200000" y2="80.000000"  style="stroke:black; stroke-linecap:round; stroke-width:0.25;"/>
<line x1="518.200000" y1="88.000000" x2="526.200000" y2="88.000000"  style="stroke:black; stroke-linecap:round; stroke-width:0.25;"/>
<line x1="518.200000" y1="104.000000" x2="526.200000" y2="104.000000"  style="stroke:black; stroke-linecap:round; stroke-width:0.25;"/>
<line x1="526.200000" y1="56.000000" x2="558.200000" y2="56.000000"  style="stroke:black; stroke-linecap:round; stroke-width:0.25;"/>
<line x1="526.200000" y1="88.000000" x2="534.200000" y2="88.000000"  style="stroke:black; stroke-linecap:round; stroke-width:0.25;"/>
<line x1="526.200000" y1="104.000000" x2="542.200000" y2="104.000000"  style="stroke:black; stroke-linecap:round; stroke-width:0.25;"/>
<line x1="526.200000" y1="112.000000" x2="550.200000" y2="112.000000"  style="stroke:black; stroke-linecap:round; stroke-width:0.25;"/>
<line x1="534.200000" y1="80.040000" x2="558.200000" y2="80.040000"  style="stroke:black; stroke-linecap:round; stroke-width:0.25;"/>
<line x1="534.200000" y1="88.000000" x2="534.200000" y2="80.040000"  style="stroke:black; stroke-linecap:round; stroke-width:0.25;"/>
<line x1="542.200000" y1="88.040000" x2="558.200000" y2="88.040000"  style="stroke:black; stroke-linecap:round; stroke-width:0.25;"/>
<line x1="542.200000" y1="104.000000" x2="542.200000" y2="88.040000"  style="stroke:black; stroke-linecap:round; stroke-width:0.25;"/>
<line x1="550.200000" y1="96.040000" x2="558.200000" y2="96.040000"  style="stroke:black; stroke-linecap:round; stroke-width:0.25;"/>
<line x1="550.200000" y1="112.000000" x2="550.200000" y2="96.040000"  style="stroke:black; stroke-linecap:round; stroke-width:0.25;"/>
<line x1="558.200000" y1="56.000000" x2="558.200000" y2="71.960000"  style="stroke:black; stroke-linecap:round; stroke-width:0.25;"/>
<line x1="558.200000" y1="71.960000" x2="558.200000" y2="71.960000"  style="stroke:black; stroke-linecap:round; stroke-width:0.25;"/>
<line x1="558.200000" y1="71.960000" x2="574.200000" y2="71.960000"  style="stroke:black; stroke-linecap:round; stroke-width:0.25;"/>
<line x1="558.200000" y1="80.000000" x2="574.200000" y2="80.000000"  style="stroke:black; stroke-linecap:round; stroke-width:0.25;"/>
<line x1="558.200000" y1="80.040000" x2="558.200000" y2="80.000000"  style="stroke:black; stroke-linecap:round; stroke-width:0.25;"/>
<line x1="558.200000" y1="80.040000" x2="558.200000" y2="80.040000"  style="stroke:black; stroke-linecap:round; stroke-width:0.25;"/>
<line x1="558.200000" y1="88.040000" x2="574.200000" y2="88.040000"  style="stroke:black; stroke-linecap:round; stroke-width:0.25;"/>
<line x1="558.200000" y1="96.040000" x2="566.200000" y2="96.040000"  style="stroke:black; stroke-linecap:round; stroke-width:0.25;"/>
<line x1="566.200000" y1="96.040000" x2="566.200000" y2="104.000000"  style="stroke:black; stroke-linecap:round; stroke-width:0.25;"/>
<line x1="566.200000" y1="104.000000" x2="574.200000" y2="104.000000"  style="stroke:black; stroke-linecap:round; stroke-width:0.25;"/>
<line x1="574.200000" y1="71.960000" x2="574.200000" y2="72.000000"  style="stroke:black; stroke-linecap:round; stroke-width:0.25;"/>
<line x1="574.200000" y1="72.000000" x2="574.200000" y2="72.000000"  style="stroke:black; stroke-linecap:round; stroke-width:0.25;"/>
<line x1="574.200000" y1="72.000000" x2="578.200000" y2="72.000000"  style="stroke:black; stroke-linecap:round; stroke-width:0.25;"/>
<line x1="574.200000" y1="80.000000" x2="578.200000" y2="80.000000"  style="stroke:black; stroke-linecap:round; stroke-width:0.25;"/>
<line x1="574.200000" y1="88.040000" x2="574.200000" y2="96.000000"  style="stroke:black; stroke-linecap:round; stroke-width:0.25;"/>
<line x1="574.200000" y1="96.000000" x2="574.200000" y2="96.000000"  style="stroke:black; stroke-linecap:round; stroke-width:0.25;"/>
<line x1="574.200000" y1="96.000000" x2="590.200000" y2="96.000000"  style="stroke:black; stroke-linecap:round; stroke-width:0.25;"/>
<line x1="574.200000" y1="104.000000" x2="590.200000" y2="104.000000"  style="stroke:black; stroke-linecap:round; stroke-width:0.25;"/>
<line x1="590.200000" y1="96.000000" x2="606.200000" y2="96.000000"  style="stroke:black; stroke-linecap:round; stroke-width:0.25;"/>
<line x1="590.200000" y1="104.000000" x2="606.200000" y2="104.000000"  style="stroke:black; stroke-linecap:round; stroke-width:0.25;"/>
<line x1="602.200000" y1="76.000000" x2="606.200000" y2="76.000000"  style="stroke:black; stroke-linecap:round; stroke-width:0.25;"/>
<line x1="606.200000" y1="36.000000" x2="429.950000" y2="36.000000"  style="stroke:black; stroke-linecap:round; stroke-width:0.25;"/>
<line x1="606.200000" y1="36.000000" x2="606.200000" y2="36.000000"  style="stroke:black; stroke-linecap:round; stroke-width:0.25;"/>
<line x1="606.200000" y1="72.000000" x2="606.200000" y2="36.000000"  style="stroke:black; stroke-linecap:round; stroke-width:0.25;"/>
<line x1="606.200000" y1="76.000000" x2="608.200000" y2="76.000000"  style="stroke:black; stroke-linecap:round; stroke-width:0.25;"/>
<line x1="606.200000" y1="96.000000" x2="614.200000" y2="96.000000"  style="stroke:black; stroke-linecap:round; stroke-width:0.25;"/>
<line x1="606.200000" y1="104.000000" x2="614.200000" y2="104.000000"  style="stroke:black; stroke-linecap:round; stroke-width:0.25;"/>
<line x1="614.200000" y1="96.000000" x2="622.200000" y2="96.000000"  style="stroke:black; stroke-linecap:round; stroke-width:0.25;"/>
<line x1="614.200000" y1="104.000000" x2="630.200000" y2="104.000000"  style="stroke:black; stroke-linecap:round; stroke-width:0.25;"/>
<line x1="622.200000" y1="64.040000" x2="638.200000" y2="64.040000"  style="stroke:black; stroke-linecap:round; stroke-width:0.25;"/>
<line x1="622.200000" y1="96.000000" x2="622.200000" y2="64.040000"  style="stroke:black; stroke-linecap:round; stroke-width:0.25;"/>
<line x1="630.200000" y1="72.040000" x2="638.200000" y2="72.040000"  style="stroke:black; stroke-linecap:round; stroke-width:0.25;"/>
<line x1="630.200000" y1="104.000000" x2="630.200000" y2="72.040000"  style="stroke:black; stroke-linecap:round; stroke-width:0.25;"/>
<line x1="638.200000" y1="64.000000" x2="654.200000" y2="64.000000"  style="stroke:black; stroke-linecap:round; stroke-width:0.25;"/>
<line x1="638.200000" y1="64.040000" x2="638.200000" y2="64.000000"  style="stroke:black; stroke-linecap:round; stroke-width:0.25;"/>
<line x1="638.200000" y1="64.040000" x2="638.200000" y2="64.040000"  style="stroke:black; stroke-linecap:round; stroke-width:0.25;"/>
<line x1="638.200000" y1="72.040000" x2="646.200000" y2="72.040000"  style="stroke:black; stroke-linecap:round; stroke-width:0.25;"/>
<line x1="646.200000" y1="72.000000" x2="654.200000" y2="72.000000"  style="stroke:black; stroke-linecap:round; stroke-width:0.25;"/>
<line x1="646.200000" y1="72.040000" x2="646.200000" y2="72.000000"  style="stroke:black; stroke-linecap:round; stroke-width:0.25;"/>
<line x1="654.200000" y1="64.000000" x2="658.200000" y2="64.000000"  style="stroke:black; stroke-linecap:round; stroke-width:0.25;"/>
<line x1="654.200000" y1="72.000000" x2="658.200000" y2="72.000000"  style="stroke:black; stroke-linecap:round; stroke-width:0.25;"/>
<line x1="658.200000" y1="64.000000" x2="662.200000" y2="64.000000"  style="stroke:black; stroke-linecap:round; stroke-width:0.25;"/>
<line x1="658.200000" y1="72.000000" x2="662.200000" y2="72.000000"  style="stroke:black; stroke-linecap:round; stroke-width:0.25;"/>
<line x1="662.200000" y1="64.000000" x2="672.200000" y2="64.000000"  style="stroke:black; stroke-linecap:round; stroke-width:0.25;"/>
<line x1="662.200000" y1="72.000000" x2="672.200000" y2="72.000000"  style="stroke:black; stroke-linecap:round; stroke-width:0.25;"/>
</svg>
